# xmcd
#
# Track frame offsets: 
#        150
#        13272
#        26935
#        46667
#        56325
#        70250
#        89415
#        105737
#        118670
#        131685
#        144065
#        157635
#        168997
#        188452
#        197397
#        208257
#        219932
#        237790
#        252467
#
# Disc length: 3574 seconds
#
# Revision: 0
# Processed by: cddbd v1.5.2PL0 Copyright (c) Steve Scherf et al.
# Submitted via: ExactAudioCopy v0.99pb4
#
DISCID=fc0df413
DTITLE=Dewey Balfa, Marc Savoy and D.L. Menard - En Bas Du Chêne Vert "U
DTITLE=nder A Green Oak Tree"
DYEAR=1989
DGENRE=Blues
TTITLE0=Chameaux One-Step (B)(*)
TTITLE1=J'ai Passe Devant Ta Porte
TTITLE2=J'ai Fait Un Gros Erreur (M)
TTITLE3=Cajun Reel
TTITLE4=Mes Petis Yeux Noirs (M)(*)
TTITLE5=Lake Arthur Stomp
TTITLE6=Jolie Blonde Du Bayou (B)
TTITLE7=Petite Fille De La Campagne (B)
TTITLE8=Ma Chere Maman Creole (B)(*)
TTITLE9=Je Peux Pas T'oublier (M)
TTITLE10=Liberty (*)
TTITLE11=Mon Bon Vieux Mari (B&M)
TTITLE12=En Bas Du Chene Verte (M)
TTITLE13=Mardi Gras Jig
TTITLE14=La Valse a Pop (*)
TTITLE15=Port Arthur Blues (B)
TTITLE16=Dans Le Coeur Da La Ville (M,B,& S)(*)
TTITLE17=La Porte Dans Arriere (M)
TTITLE18=J'ai Ete Au Bal (B)
EXTD=
EXTT0=
EXTT1=
EXTT2=
EXTT3=
EXTT4=
EXTT5=
EXTT6=
EXTT7=
EXTT8=
EXTT9=
EXTT10=
EXTT11=
EXTT12=
EXTT13=
EXTT14=
EXTT15=
EXTT16=
EXTT17=
EXTT18=
PLAYORDER=
